PathFileType	4	(X/Y/Z)	C:/Users/beibeiliu/ov580/test_trc/User2\sequence.40_training_dense_right.trc
DataRate	CameraRate	NumFrames	NumMarkers	Units	OrigDataRate	OrigDataStartFrame	OrigNumFrames
120	120	18	19	mm	120	142	198
Frame#	Time	ThumbCMC			ThumbMCP			ThumbIP			ThumbTip			IndexMCP			IndexPIP			IndexTip			MiddleMCP			MiddlePIP			MiddleTip			RingMCP			RingPIP			RingTip			PinkyMCP			PinkyPIP			PinkyTip			BackHand1			BackHand2			BackHand3	
		X0	Y0	Z0	X1	Y1	Z1	X2	Y2	Z2	X3	Y3	Z3	X4	Y4	Z4	X5	Y5	Z5	X6	Y6	Z6	X7	Y7	Z7	X8	Y8	Z8	X9	Y9	Z9	X10	Y10	Z10	X11	Y11	Z11	X12	Y12	Z12	X13	Y13	Z13	X14	Y14	Z14	X15	Y15	Z15	X16	Y16	Z16	X17	Y17	Z17	X18	Y18	Z18	
141	1.175	89.6889	75.0629	9.16754	57.3715	86.7832	-5.6129	27.2228	93.5032	-23.4027	7.60455	80.3219	-35.2318	55.2209	58.5901	-71.8282	23.8227	53.0728	-74.3314	4.38008	55.3572	-45.3295	47.7972	32.1976	-68.9066	10.7608	39.2872	-60.7284	6.98032	41.0568	-21.9017	37.8516	16.539	-60.4907	10.0745	19.297	-44.5274	15.3725	31.8906	-13.8016	42.126	-6.86794	-42.8694	13.2476	8.64846	-28.1194	20.9623	20.8351	-1.40644	96.932	11.1624	-29.9443	118.794	5.97928	-0.801955	110.293	41.7621	-17.0474	
142	1.18333	87.6508	74.9294	4.56204	58.5332	91.6975	-2.27587	27.4255	97.6824	-19.9557	6.39756	89.0055	-30.3064	58.8703	56.997	-72.4277	28.4086	59.1215	-82.1229	-0.759136	59.6562	-64.9232	50.1501	33.7388	-75.7958	14.7537	35.3612	-76.1906	-6.09993	42.2184	-39.0139	41.3922	13.3716	-68.5577	14.0269	19.1571	-66.2655	-1.02033	31.094	-30.4952	42.6048	-7.06255	-48.4951	12.4546	3.64809	-46.7555	-1.17783	18.8367	-19.3564	96.407	9.43543	-25.7041	115.152	3.38177	-4.60074	111.221	44.045	-18.8136	
143	1.19167	87.5931	69.9771	4.1404	59.9542	89.3099	0.084583	27.5267	100.797	-16.8488	4.67185	96.0548	-31.1149	61.5544	58.0121	-71.0422	28.5145	61.3816	-86.0647	-1.67327	59.0289	-77.1434	55.6891	32.2515	-77.2618	19.8224	35.0348	-88.657	-14.1393	43.6077	-67.4092	50.3129	11.3277	-69.1299	14.0407	14.0926	-78.1415	-10.076	27.5963	-61.7257	44.814	-10.6192	-48.2274	13.2145	-5.46159	-55.5426	-10.7053	14.439	-46.878	93.8125	7.5818	-30.5603	113.658	3.38669	1.95663	107.448	39.3813	-17.0757	
144	1.2	90.3119	66.2081	8.91524	59.5499	87.7596	0.678716	30.4123	98.384	-14.3351	6.5371	101.593	-25.4303	60.1279	55.9023	-74.1751	30.4995	57.8216	-87.992	2.85044	64.8666	-86.9004	59.0316	31.9175	-77.5833	24.9866	34.453	-96.8502	-8.92583	41.2666	-95.0269	50.5212	7.56838	-73.166	25.6592	8.5311	-86.8774	-9.16656	20.7044	-87.9825	42.2873	-14.9885	-49.9827	12.5069	-8.95847	-64.9187	-8.482	0.721966	-67.2113	88.4465	2.652	-28.1591	111.196	-1.59096	3.00923	108.71	33.6642	-18.7127	
145	1.20833	90.99	62.676	4.93276	61.2444	83.7534	-4.53164	33.4989	100.456	-15.5434	10.3843	104.351	-27.6593	59.7803	49.498	-75.204	35.526	57.1869	-88.9944	5.12924	65.6466	-90.9942	60.9333	25.0297	-80.0868	33.4471	30.7347	-103.494	0.788983	36.6149	-113.633	52.2083	3.64081	-73.7058	29.0595	5.35498	-94.431	0.585088	13.0049	-106.067	41.2004	-14.2724	-50.2213	17.7752	-12.945	-67.4269	-6.29716	-11.2912	-79.8127	86.0011	-6.17291	-24.1984	105.276	-8.10824	2.28705	107.711	24.4926	-17.9541	
146	1.21667	93.2113	59.0025	-2.58986	67.7326	80.0068	-7.13086	39.0273	98.7564	-22.5962	17.0378	104.312	-29.7959	61.0588	47.1186	-79.6089	38.3255	56.0566	-89.6224	4.15276	64.1022	-89.5285	59.3824	19.9137	-81.8323	34.8162	25.9239	-107.464	5.17297	34.5002	-125.206	49.3273	-1.93335	-71.1062	29.313	0.03175	-95.7133	8.41941	6.6447	-114.173	34.2935	-16.738	-51.7769	14.4717	-14.1551	-70.482	-3.45708	-10.2938	-88.077	82.5952	-7.91508	-27.8883	97.4652	-13.7921	2.04778	106.459	18.5583	-17.3788	
147	1.225	97.0026	54.5622	-5.81085	70.9847	76.7215	-11.7671	44.2401	94.3272	-26.3171	21.3234	100.487	-36.1491	60.3895	37.2509	-77.6191	34.2282	50.5485	-89.394	5.61983	66.794	-84.5932	55.5313	11.5441	-84.9382	34.9469	22.2712	-111.99	11.0337	33.974	-130.9	45.8222	-4.80143	-71.6384	28.2681	-4.86584	-93.9989	9.10944	1.77356	-116.567	32.4638	-14.3621	-47.3073	11.5027	-15.2064	-65.8928	-3.4401	-17.0924	-84.9462	77.682	-13.3786	-24.0219	93.0301	-17.3398	0.895614	104.231	9.51434	-18.4034	
148	1.23333	98.0817	48.3083	-7.30499	71.762	75.0376	-17.0315	44.5226	92.5399	-33.2555	22.4441	98.636	-40.6859	58.8518	36.7802	-80.4452	30.3411	52.8514	-85.872	8.1589	73.3351	-76.3778	55.2862	10.5742	-85.4419	35.9767	17.0122	-108.824	10.0421	29.7337	-130.63	42.7226	-6.18679	-73.1853	25.3127	-6.88981	-93.1208	8.2999	3.02841	-116.228	26.6884	-16.0482	-49.2158	6.14871	-15.3255	-66.6709	-7.64695	-12.8457	-87.4112	71.2169	-16.4189	-24.164	91.2578	-21.52	3.06281	103.584	2.86919	-20.3111	
149	1.24167	100.833	48.6798	-6.92475	75.6634	70.8034	-15.4665	46.55	91.2944	-34.4584	22.3201	91.9426	-42.9741	58.8112	34.8544	-77.1865	34.2362	53.0604	-81.4233	12.5728	71.7054	-67.1681	56.9104	10.1112	-82.9914	36.6952	20.0034	-108.776	11.4844	31.1271	-130.275	42.7286	-5.19207	-71.7241	25.9002	-3.51871	-91.9811	6.03227	3.98879	-118.53	26.3125	-13.7199	-49.4128	8.54318	-12.0518	-67.8136	-5.50314	-9.88235	-88.32	72.8616	-17.4736	-23.0629	88.9904	-24.9455	3.82346	104.657	4.57066	-22.4621	
150	1.25	101.911	46.918	-5.84584	74.5259	71.3773	-18.4684	48.5273	88.1627	-32.6236	23.8806	94.0224	-45.232	62.3479	39.7283	-76.7225	37.5723	59.8571	-80.317	15.7803	80.0574	-57.1608	56.077	11.4164	-84.9406	35.548	22.8656	-110.482	12.4486	36.1001	-130.083	43.6735	-5.61403	-70.4334	26.1001	-1.7176	-96.9478	11.8558	7.56624	-116.475	30.5794	-12.0759	-48.2791	13.5988	-10.7991	-66.4793	-2.02582	-9.28406	-88.8587	73.5871	-17.0715	-25.7919	90.2953	-23.4116	1.23652	104.034	3.557	-22.5115	
151	1.25833	101.284	48.5243	-7.24252	76.2506	74.5093	-15.1877	47.7354	87.2961	-32.9919	23.7865	92.4058	-42.0717	63.7493	42.8984	-75.1531	36.2944	59.3955	-76.3812	14.8884	78.4973	-52.4067	57.2533	12.4082	-82.0129	38.437	25.1044	-108.468	17.7494	40.2761	-127.748	41.0966	-6.72844	-74.172	26.2211	-1.5592	-96.809	10.7755	8.41604	-114.914	28.6769	-15.5025	-47.2955	12.848	-9.94789	-69.8928	-3.02878	-6.00559	-90.3229	74.0285	-15.6718	-24.4188	89.4132	-26.1052	6.0672	104.383	4.91441	-21.053	
152	1.26667	99.5586	46.2039	-4.06062	76.8912	74.2709	-12.7716	47.1593	94.173	-32.2196	24.7616	96.3681	-41.6279	61.7714	41.9018	-73.8674	36.1756	63.123	-76.4221	16.3845	78.9814	-54.1785	55.3063	14.7435	-86.4632	38.5874	28.8351	-109.393	13.7945	39.1974	-128.017	43.1263	-4.47176	-70.3241	30.2248	1.49212	-93.1802	12.531	11.6552	-115.424	29.8232	-10.973	-47.5012	9.00636	-9.46009	-70.5386	-1.56226	-4.9956	-88.057	71.2054	-18.9335	-22.9066	91.048	-20.7066	5.85209	105.296	6.82784	-18.5532	
153	1.275	102.739	47.2076	-2.4639	77.7996	75.375	-14.0629	49.3495	94.6852	-32.3576	25.6812	100.295	-40.0605	65.1849	46.1218	-77.5298	39.0835	64.204	-81.2122	17.4196	80.1417	-62.8366	59.9954	15.4386	-82.1088	36.6017	27.2111	-110.756	16.2493	42.5764	-131.134	43.2487	-2.74493	-73.7937	26.3554	1.60208	-94.9099	8.38373	9.78918	-115.898	28.3227	-10.3173	-48.4152	8.97156	-6.49902	-69.3339	-3.5187	-1.27011	-90.5505	70.5935	-16.1038	-24.1597	88.2206	-23.2399	1.31239	104.161	5.16457	-18.0396	
154	1.28333	101.609	46.7871	-3.4476	77.3544	75.3777	-14.9312	50.0179	94.2923	-29.5341	26.241	102.089	-40.244	64.8874	42.7734	-80.7479	42.8827	63.4613	-89.6676	19.0854	80.4889	-77.3147	57.2312	13.7543	-83.9694	38.2405	24.0449	-108.485	15.1692	40.8633	-130.735	41.4192	-3.48804	-69.4366	22.5674	-0.635537	-90.6494	7.38091	12.0518	-114.157	25.7665	-9.84139	-45.3665	7.86604	-6.13048	-64.6957	-7.28726	-3.34211	-84.2685	71.5	-12.3968	-21.6926	85.7334	-22.9936	5.19399	105.793	5.74636	-20.8267	
155	1.29167	102.001	45.5367	-2.82624	77.347	75.0817	-14.6332	49.9628	95.2257	-30.1955	27.1718	100.056	-38.2835	68.7445	38.556	-81.8629	45.8865	57.414	-94.9081	26.9835	76.012	-94.7494	57.3829	15.6181	-85.6719	32.7176	25.8926	-108.882	9.7814	45.5349	-124.955	37.746	-3.34608	-66.6642	18.5675	2.59105	-90.9168	-0.444089	18.5457	-110.782	25.6544	-10.5747	-42.912	2.37331	-6.02623	-64.1343	-14.1576	1.86431	-82.7152	68.1021	-15.6435	-24.2314	84.8797	-22.261	5.80191	103.633	4.39936	-18.3508	
156	1.3	102.944	47.748	-4.02945	77.7857	72.7716	-10.7664	50.7534	92.1558	-25.9779	29.6748	102.225	-35.6089	72.7162	38.7301	-81.7045	50.9594	55.337	-99.6556	30.5895	72.4457	-103.107	52.4351	17.2952	-81.5917	33.4427	34.1451	-101.068	1.24602	57.6891	-106.881	37.2858	1.51531	-70.8661	15.623	12.7423	-89.3631	-4.39406	32.8044	-100.649	24.0944	-9.65859	-41.1871	3.78513	-2.50015	-61.1399	-19.4679	8.70775	-76.8207	69.2977	-13.3152	-23.7781	87.6758	-20.3658	5.99617	104.737	2.45549	-19.9782	
157	1.30833	104.766	49.212	-0.863688	75.1617	73.7744	-15.3926	48.805	92.2131	-30.1523	26.0998	97.4171	-39.054	74.5682	36.312	-77.9003	57.181	54.0752	-100.097	31.9423	72.3267	-108.215	51.082	23.8106	-81.034	23.3908	43.8912	-92.088	-1.13043	69.6865	-84.2807	34.1059	2.98504	-65.2958	14.9489	17.5201	-83.3064	-7.8313	41.7927	-87.1354	24.1983	-9.22549	-40.521	3.26585	-0.0339944	-59.2127	-17.443	13.832	-69.885	73.2855	-14.4676	-18.9757	91.536	-21.639	6.00212	107.319	6.72941	-19.3824	
158	1.31667	101.423	48.5795	-6.17099	77.3228	74.0844	-13.7809	47.8244	89.1049	-30.4606	23.7293	96.3371	-42.478	73.423	35.1824	-81.7625	58.7628	51.2008	-100.407	31.1973	67.373	-109.905	49.165	23.5476	-76.9762	22.4972	47.6374	-85.5711	0.804874	73.4381	-66.8696	34.7926	5.97375	-66.7038	13.9914	22.8848	-80.1599	-5.34353	54.6631	-79.0799	23.7719	-9.31287	-41.6822	1.72121	3.59836	-61.1079	-19.5943	17.8436	-67.3017	71.0299	-14.2889	-24.6821	89.8614	-19.1571	3.40955	107.226	7.36177	-21.2681	
